<?xml version="1.0" encoding="iso-8859-1"?>
<!-- Generator: Adobe Illustrator 16.0.0, SVG Export Plug-In . SVG Version: 6.00 Build 0)  -->
<!DOCTYPE svg PUBLIC "-//W3C//DTD SVG 1.1//EN" "http://www.w3.org/Graphics/SVG/1.1/DTD/svg11.dtd">
<svg version="1.1" id="Capa_1" xmlns="http://www.w3.org/2000/svg" xmlns:xlink="http://www.w3.org/1999/xlink" x="0px" y="0px"
	 width="64px" height="64px" viewBox="0 0 64 64" style="enable-background:new 0 0 64 64;" xml:space="preserve">
<g>
	<g>
		<g id="circle_copy_3_2_">
			<g>
				<path d="M32,0C14.327,0,0,14.327,0,32s14.327,32,32,32s32-14.327,32-32S49.673,0,32,0z M32,62C15.432,62,2,48.568,2,32
					C2,15.432,15.432,2,32,2c16.568,0,30,13.432,30,30C62,48.568,48.568,62,32,62z"/>
			</g>
		</g>
		<g id="Rewind_copy_7">
			<g>
				<path d="M43.012,22.307l-6.789-4.033c-0.938-0.557-2.137-0.227-2.678,0.738L26.254,32.35l-0.979,1.746
					c-0.319,0.568-0.781,1.278-0.735,2.021L24.012,45c0,0,0.413,2,1.988,2v-0.014c0.283-0.006,0.565-0.064,0.826-0.198l7.306-4.976
					c0.647-0.328,1.009-1.099,1.327-1.666l0.98-1.748l0.49-0.873l6.799-12.464C44.271,24.097,43.949,22.863,43.012,22.307z
					 M37.682,32.152l-2.449,4.365l-0.49,0.873c0,0-0.352,0.625-0.98,1.746c-0.629,1.122-1.966,2.187-2.452,2.432l-3.718,3.011
					c-0.44,0.226-0.959,0.207-1.383-0.045s-0.698-0.705-0.729-1.209l0.674-4.818c-0.034-0.555,0.182-2.271,0.817-3.401
					c0.635-1.133,1.96-3.494,1.96-3.494l1.96-3.493l1.429-2.661l6.791,4.031L37.682,32.152z M40.042,27.759l-6.792-4.031
					l1.992-3.708l6.79,4.033L40.042,27.759z"/>
			</g>
		</g>
	</g>
</g>
<g>
</g>
<g>
</g>
<g>
</g>
<g>
</g>
<g>
</g>
<g>
</g>
<g>
</g>
<g>
</g>
<g>
</g>
<g>
</g>
<g>
</g>
<g>
</g>
<g>
</g>
<g>
</g>
<g>
</g>
</svg>
